<?xml version="1.0" standalone="no"?>
<!DOCTYPE svg PUBLIC "-//W3C//DTD SVG 20010904//EN"
 "http://www.w3.org/TR/2001/REC-SVG-20010904/DTD/svg10.dtd">
<svg version="1.0" xmlns="http://www.w3.org/2000/svg"
 width="16.000000pt" height="16.000000pt" viewBox="0 0 16.000000 16.000000"
 preserveAspectRatio="xMidYMid meet">
<metadata>
Created by potrace 1.11, written by Peter Selinger 2001-2013
</metadata>
<g transform="translate(0.000000,16.000000) scale(0.004000,-0.004000)"
fill="#000000" stroke="none">
<path d="M0 2127 c0 -1581 2 -1876 14 -1892 13 -18 14 -18 12 5 -1 22 3 25 31
26 18 0 30 -3 27 -8 -3 -4 2 -11 10 -14 10 -4 24 3 36 17 10 13 19 18 20 12 0
-7 -4 -13 -9 -13 -5 0 -11 -9 -14 -21 -5 -17 -3 -18 10 -7 13 10 17 10 20 1 3
-7 9 -13 15 -13 7 0 7 4 0 12 -5 7 -6 22 -2 33 6 16 8 14 13 -14 7 -35 27 -34
27 2 1 20 2 20 11 4 6 -9 14 -15 20 -12 5 4 9 0 9 -7 0 -9 3 -9 10 2 5 8 10
10 10 4 0 -17 28 -25 36 -12 5 7 2 8 -6 3 -9 -5 -11 -4 -6 4 6 9 11 9 24 -1
12 -10 14 -10 8 0 -4 6 -2 12 3 12 6 0 12 -10 12 -22 1 -17 2 -19 6 -5 4 16
16 22 36 18 5 -1 6 3 2 9 -13 22 28 9 47 -15 11 -14 25 -25 31 -25 8 0 8 3 -1
9 -11 7 -10 10 3 15 23 8 27 8 21 -3 -4 -5 2 -8 11 -6 10 2 23 4 28 4 6 1 4 5
-4 10 -9 6 -10 11 -2 15 6 4 11 5 11 2 0 -3 12 -1 26 5 23 8 25 8 15 -5 -10
-12 -8 -13 10 -9 17 5 20 3 14 -7 -5 -8 -4 -11 3 -6 5 3 12 3 15 -1 2 -5 3 -3
2 2 -2 6 8 16 22 22 22 11 23 10 11 -4 -11 -15 -11 -16 5 -10 9 3 17 2 17 -3
0 -6 9 -10 21 -10 11 0 17 4 14 10 -4 6 7 11 24 11 52 2 56 4 55 22 -1 9 2 14
8 11 5 -3 6 -14 3 -23 -3 -11 0 -18 9 -18 9 0 13 5 10 11 -3 6 1 3 9 -6 8 -10
17 -15 20 -11 4 3 7 0 7 -7 0 -7 3 -10 6 -7 4 4 2 13 -5 21 -9 11 -8 15 4 20
11 4 14 2 10 -7 -4 -6 1 -3 9 7 14 17 16 17 16 4 0 -9 -5 -20 -10 -23 -6 -3
-10 -12 -10 -18 0 -7 5 -4 11 5 5 10 19 18 29 18 11 0 20 3 20 8 0 4 9 13 20
20 18 11 19 10 10 -14 -13 -33 -12 -44 1 -21 12 20 41 23 33 3 -8 -21 26 -14
42 9 8 11 14 13 14 6 0 -7 5 -9 10 -6 6 4 8 10 5 15 -3 4 2 10 9 13 10 4 14 0
11 -13 -4 -23 23 -36 32 -15 4 12 9 13 19 4 11 -9 14 -8 14 2 0 12 2 12 9 0 5
-7 14 -10 21 -6 9 6 9 9 -1 16 -11 7 -11 9 -1 9 7 0 11 4 7 9 -3 5 -1 12 4 15
5 3 7 -11 6 -32 -2 -20 -1 -32 2 -25 2 7 10 10 18 7 7 -3 16 3 19 14 4 11 14
26 24 34 15 12 16 11 3 -5 -18 -23 -6 -35 21 -18 17 11 23 9 44 -10 13 -12 21
-26 18 -30 -3 -5 0 -9 6 -9 6 0 9 8 6 18 -4 12 -1 19 8 19 9 0 13 -4 10 -9 -3
-4 0 -8 5 -8 6 0 11 6 11 13 0 8 4 7 11 -3 8 -11 12 -12 16 -2 6 15 35 16 51
0 7 -7 12 -8 12 -3 0 6 5 3 10 -5 6 -10 10 -11 10 -2 0 6 7 12 16 12 14 0 14
-3 4 -15 -11 -13 -10 -14 3 -9 8 3 18 12 21 20 3 8 11 14 18 14 9 0 8 -3 -2
-10 -9 -6 -10 -10 -3 -10 19 0 43 12 39 19 -3 4 0 13 6 21 8 12 9 12 4 -3 -4
-13 1 -19 24 -24 25 -4 28 -8 19 -20 -10 -11 -9 -12 5 -7 9 3 16 16 16 28 0
11 4 17 8 11 9 -13 53 -15 45 -2 -4 6 -1 7 6 2 7 -4 10 -16 8 -27 -7 -23 1
-17 17 13 14 27 30 27 34 -1 2 -11 8 -20 13 -20 6 0 8 4 5 9 -8 13 4 42 15 35
5 -3 9 -1 9 4 0 6 10 5 25 -1 14 -7 25 -20 25 -29 0 -9 4 -20 10 -23 5 -3 7 0
4 9 -3 8 -1 23 5 33 10 17 10 16 11 -4 0 -12 5 -25 12 -29 7 -4 8 -3 4 4 -6
11 6 16 27 13 4 0 7 5 7 12 0 6 5 4 11 -6 8 -13 15 -15 28 -7 10 5 22 6 26 2
5 -4 5 -1 0 7 -6 11 -2 13 19 9 23 -5 26 -3 21 16 -5 19 -5 19 5 3 12 -19 31
-23 27 -6 -1 6 4 13 11 15 7 1 8 0 3 -2 -6 -3 -7 -12 -4 -19 3 -11 10 -12 23
-5 14 7 19 5 23 -10 3 -11 12 -20 21 -20 10 0 13 6 9 16 -5 13 -7 13 -14 2 -5
-7 -9 -8 -9 -3 0 14 13 30 27 32 8 2 10 -4 6 -14 -5 -12 -3 -14 7 -8 10 6 12
4 7 -8 -3 -10 -2 -17 3 -17 6 0 10 8 10 18 0 9 9 23 21 30 12 8 19 10 16 5 -3
-5 -2 -15 4 -23 6 -11 9 -11 9 -2 0 9 5 10 18 3 10 -5 35 -8 56 -5 22 2 35 0
32 -5 -9 -13 43 -6 57 8 9 10 6 10 -16 2 -21 -8 -28 -8 -25 0 2 6 6 10 8 9 3
-1 17 3 32 9 26 10 27 9 23 -20 -3 -24 -1 -28 9 -20 7 6 16 8 20 4 4 -4 4 0 1
9 -4 9 -2 19 4 23 10 5 15 -6 13 -26 -2 -11 27 -5 32 7 4 10 13 10 40 2 19 -6
33 -15 30 -20 -4 -5 7 -3 24 6 16 8 32 12 36 9 3 -4 6 -2 6 4 0 5 16 9 35 9
19 -1 35 -4 35 -8 0 -5 5 -8 11 -8 6 0 8 8 4 19 -5 15 -1 19 14 18 15 -1 17
-5 10 -18 -6 -11 -5 -20 1 -24 5 -3 10 -1 10 4 0 6 9 11 21 11 13 0 18 -4 13
-12 -5 -7 -3 -8 5 -3 7 4 11 16 8 26 -3 11 -1 17 3 14 5 -3 13 3 19 12 6 10
11 13 11 6 0 -6 -5 -15 -10 -18 -19 -12 -10 -26 10 -15 15 8 18 8 14 -3 -10
-26 40 -14 53 13 11 23 11 24 12 4 1 -12 9 -25 18 -28 15 -6 15 -8 3 -16 -8
-6 -10 -10 -4 -10 18 0 24 13 12 27 -6 7 -8 17 -4 20 4 4 11 1 16 -7 8 -12 10
-12 15 1 3 8 18 15 33 16 17 1 21 -1 12 -5 -8 -4 -16 -16 -18 -27 -2 -18 -2
-18 8 -3 6 10 16 18 21 18 6 0 8 -4 5 -8 -9 -15 28 -30 52 -21 12 5 22 11 22
14 0 4 -4 3 -10 0 -6 -3 -10 -1 -10 6 0 7 -7 4 -15 -7 -13 -16 -14 -16 -9 -1
3 9 1 23 -5 31 -9 10 -8 15 4 19 8 4 14 1 12 -6 -1 -7 7 -11 21 -10 12 2 22
-3 22 -10 0 -6 5 -4 11 5 5 10 15 18 22 18 8 0 8 -3 2 -8 -5 -4 -12 -16 -13
-26 -3 -18 -2 -18 14 -5 16 12 17 12 11 -3 -5 -13 -1 -18 13 -18 11 0 20 5 20
11 0 5 -4 7 -10 4 -6 -4 -7 1 -3 11 5 15 7 14 17 -3 6 -10 19 -17 29 -15 9 2
15 8 11 13 -3 5 -10 7 -15 4 -5 -3 -7 0 -4 7 3 7 16 13 29 13 13 0 22 -3 19
-7 -7 -13 12 -9 26 5 7 6 12 8 11 2 -2 -5 -2 -17 -1 -25 1 -12 4 -11 12 3 6
10 7 24 2 30 -4 7 0 4 9 -6 18 -19 18 -19 27 4 10 24 10 24 10 -3 1 -27 13
-43 25 -31 3 3 0 13 -7 21 -8 11 -8 14 0 9 6 -4 13 -4 16 0 2 5 3 3 1 -4 -5
-19 8 -23 21 -6 11 15 13 15 24 -5 7 -13 17 -19 26 -16 8 4 12 10 9 15 -3 5
-11 6 -17 3 -9 -5 -9 -3 0 6 9 10 16 10 25 2 16 -13 108 -14 108 -1 0 5 7 9
15 9 8 0 15 -5 15 -12 0 -6 7 -3 16 8 14 18 15 18 10 -6 -3 -14 -3 -20 0 -13
3 7 12 9 20 6 8 -3 14 0 14 7 0 6 -5 8 -10 5 -6 -3 -10 4 -10 16 0 17 3 19 14
10 8 -7 17 -8 20 -3 8 14 51 7 51 -9 1 -8 7 -13 14 -11 7 1 10 -2 6 -8 -3 -6
-12 -7 -18 -4 -7 4 -8 3 -4 -2 5 -5 12 -9 15 -9 4 0 13 -4 21 -9 11 -7 13 -5
8 7 -3 9 -2 19 3 22 4 3 11 -1 13 -7 3 -7 6 -8 6 -2 1 6 14 9 32 6 22 -3 30
-1 25 7 -4 6 -3 11 2 11 6 0 12 -7 16 -15 8 -23 28 -18 21 5 -5 16 -2 20 17
19 22 0 22 -1 3 -9 l-20 -8 20 -7 c11 -5 23 -10 27 -12 4 -2 8 831 8 1851 l0
1856 -2000 0 -2000 0 0 -1873z m2258 1218 c413 -81 740 -333 916 -706 171
-361 167 -814 -9 -1171 -147 -298 -398 -526 -710 -647 -184 -71 -263 -85 -490
-86 -221 0 -279 8 -443 61 -610 198 -966 815 -852 1476 99 576 546 1007 1126
1087 98 14 363 6 462 -14z m1619 -3019 c0 -8 -6 -12 -15 -9 -11 5 -11 7 0 14
7 5 13 9 14 9 0 0 1 -6 1 -14z m-277 0 c0 -3 -4 -8 -10 -11 -5 -3 -10 -1 -10
4 0 6 5 11 10 11 6 0 10 -2 10 -4z m-1886 -31 c-4 -8 -8 -15 -10 -15 -2 0 -4
7 -4 15 0 8 4 15 10 15 5 0 7 -7 4 -15z m289 -19 c-3 -4 -9 -2 -14 5 -13 22
-11 31 5 17 8 -7 12 -17 9 -22z m377 24 c0 -5 -5 -10 -11 -10 -5 0 -7 5 -4 10
3 6 8 10 11 10 2 0 4 -4 4 -10z m257 3 c-9 -2 -15 -8 -12 -13 3 -5 1 -11 -5
-15 -5 -3 -10 0 -10 8 0 18 10 27 29 26 13 -1 12 -2 -2 -6z m-1099 -18 c-10
-10 -49 -14 -43 -4 4 5 10 7 15 4 5 -3 12 0 15 6 4 5 10 8 13 5 3 -3 3 -8 0
-11z m-1065 -12 c-5 -12 -2 -15 9 -10 11 4 18 -1 21 -14 4 -16 3 -18 -8 -9
-10 8 -19 8 -33 1 -29 -16 -35 -1 -10 26 26 27 30 29 21 6z m377 7 c0 -5 -5
-10 -11 -10 -5 0 -7 5 -4 10 3 6 8 10 11 10 2 0 4 -4 4 -10z m628 -15 c-3 -3
-9 2 -12 12 -6 14 -5 15 5 6 7 -7 10 -15 7 -18z m-791 -4 c0 -11 -5 -17 -9
-15 -11 7 -10 34 1 34 6 0 9 -9 8 -19z m336 -6 c-3 -9 -8 -14 -10 -11 -3 3 -2
9 2 15 9 16 15 13 8 -4z"/>
<path d="M1825 2886 c-302 -60 -514 -276 -602 -611 -35 -137 -37 -348 -4 -470
74 -274 257 -477 504 -560 332 -111 689 10 881 298 106 160 149 307 149 517 1
208 -42 354 -149 517 -97 146 -242 250 -411 294 -101 26 -274 33 -368 15z"/>
<path d="M445 250 c-3 -6 1 -7 9 -4 18 7 21 14 7 14 -6 0 -13 -4 -16 -10z"/>
<path d="M3740 319 c0 -4 -3 -16 -6 -26 -6 -14 -4 -16 6 -6 11 10 16 9 24 -3
9 -12 11 -9 11 14 1 20 -4 28 -17 28 -10 0 -18 -3 -18 -7z"/>
<path d="M1293 259 c-2 -16 1 -18 11 -10 7 6 17 7 22 3 4 -4 2 1 -5 11 -18 23
-26 22 -28 -4z"/>
<path d="M1830 273 c0 -5 5 -15 10 -23 8 -12 10 -11 10 8 0 12 -4 22 -10 22
-5 0 -10 -3 -10 -7z"/>
<path d="M2233 267 c0 -8 6 -14 13 -14 7 0 10 6 7 14 -3 7 -8 13 -12 13 -4 0
-8 -6 -8 -13z"/>
<path d="M2693 261 c0 -11 5 -17 9 -15 11 7 10 34 -1 34 -6 0 -9 -9 -8 -19z"/>
<path d="M3368 273 c6 -2 9 -10 6 -15 -4 -7 -2 -8 5 -4 13 9 5 26 -12 25 -9 0
-8 -2 1 -6z"/>
<path d="M3530 276 c0 -2 7 -7 16 -10 8 -3 12 -2 9 4 -6 10 -25 14 -25 6z"/>
<path d="M1240 267 c0 -2 6 -10 14 -16 11 -9 16 -9 22 1 4 7 4 10 -1 6 -4 -4
-14 -3 -22 3 -7 6 -13 9 -13 6z"/>
<path d="M2040 266 c0 -2 8 -10 18 -17 15 -13 16 -12 3 4 -13 16 -21 21 -21
13z"/>
<path d="M2280 261 c0 -5 7 -12 16 -15 14 -5 15 -4 4 9 -14 17 -20 19 -20 6z"/>
<path d="M2560 266 c0 -2 7 -7 16 -10 8 -3 12 -2 9 4 -6 10 -25 14 -25 6z"/>
<path d="M2101 244 c0 -11 3 -14 6 -6 3 7 2 16 -1 19 -3 4 -6 -2 -5 -13z"/>
<path d="M50 234 c6 -6 6 -14 2 -19 -4 -4 3 -2 15 6 25 15 22 28 -7 26 -13 -1
-16 -5 -10 -13z"/>
<path d="M1040 236 c0 -2 7 -7 16 -10 8 -3 12 -2 9 4 -6 10 -25 14 -25 6z"/>
</g>
</svg>
